<svg width="24" height="24" viewBox="0 0 24 24" fill="none" xmlns="http://www.w3.org/2000/svg">
<path d="M23.7889 22.7344L17.1261 16.125C18.6276 14.3906 19.4721 12.1875 19.4721 9.75C19.4721 4.40625 15.0616 0 9.71261 0C4.31672 0 0 4.40625 0 9.75C0 15.1406 4.36364 19.5 9.71261 19.5C12.1056 19.5 14.3109 18.6562 16.0469 17.1562L22.6628 23.8125C22.8504 23.9531 23.0381 24 23.2727 24C23.4604 24 23.6481 23.9531 23.7889 23.8125C24.0704 23.5312 24.0704 23.0156 23.7889 22.7344ZM9.75953 18C5.16129 18 1.50147 14.2969 1.50147 9.75C1.50147 5.20312 5.16129 1.5 9.75953 1.5C14.3109 1.5 18.0176 5.20312 18.0176 9.75C18.0176 14.3438 14.3109 18 9.75953 18Z" fill="black"/>
</svg>
